<?xml version="1.0" encoding="utf-8"?>
<!-- Generator: Adobe Illustrator 22.1.0, SVG Export Plug-In . SVG Version: 6.00 Build 0)  -->
<svg version="1.1" id="Ebene_1" xmlns="http://www.w3.org/2000/svg" xmlns:xlink="http://www.w3.org/1999/xlink" x="0px" y="0px"
	 viewBox="0 0 100 100" style="enable-background:new 0 0 100 100;" xml:space="preserve">
<style type="text/css">
	.st0{fill:white;}
</style>
<path class="st0" d="M78.9,30.6c-1.4,0-2.6,0.7-3.3,1.8C75.2,33,75,33.7,75,34.5c0,1.1,0.4,2,1.1,2.8c-2.4,3.2-7.3,9-9.8,6.2
	c-2.8-3.2-3.3-7-3.3-9.2c1.1-0.4,1.9-1.2,2.3-2.3c0.2-0.4,0.3-0.9,0.3-1.4c0-2.2-1.8-3.9-3.9-3.9c-1.9,0-3.4,1.3-3.8,3.1
	c-0.1,0.3-0.1,0.6-0.1,0.9c0,1.8,1.2,3.3,2.9,3.8c-0.2,2.4-1,4.9-2.6,6.9c-2,2.5-4.8,4.4-7.9,4.5c-3.7,0.1-7.2-1.9-8.7-5.5
	c-0.1-0.3-1-3.4-1.6-5.6c0.9-0.4,1.6-1,2-1.9c0.3-0.5,0.4-1.1,0.4-1.8c0-2.2-1.8-3.9-3.9-3.9c-1.8,0-3.3,1.2-3.8,2.9
	c-0.1,0.3-0.1,0.7-0.1,1c0,1.7,1.1,3.2,2.7,3.7c-0.1,1.9-0.7,4.8-2.7,7.9c-2.8,4.4-8.6-3-10.7-6c0.7-0.7,1.1-1.7,1.1-2.7
	c0-0.5-0.1-1-0.3-1.5c-0.6-1.4-2-2.4-3.6-2.4c-2.2,0-3.9,1.8-3.9,3.9c0,0.7,0.2,1.3,0.5,1.8c0.7,1.2,2,2.1,3.5,2.1
	c0.2,0,0.4,0,0.6-0.1c1.5,2.9,4.8,9.7,7.1,18c3,11.1,2,15.8,2,15.8h0.2c-0.1,0.1-0.2,0.3-0.2,0.4c0,0.1,0,0.2,0.1,0.3
	c-0.1-0.2-0.1-0.3-0.1-0.3c0,0,0,0.2,0.2,0.4c0.2,0.2,0.5,0.5,1,0.7c1,0.5,2.5,0.9,4.4,1.2c1.9,0.3,4.1,0.6,6.4,0.8
	c2.4,0.2,4.9,0.3,7.4,0.3c2.5,0,5.1-0.1,7.4-0.3c2.4-0.2,4.6-0.5,6.4-0.8c1.9-0.3,3.4-0.8,4.4-1.2c0.5-0.2,0.9-0.5,1-0.7
	c0.2-0.2,0.1-0.4,0.2-0.4c0,0,0,0.1-0.1,0.3c0-0.1,0.1-0.2,0.1-0.3c0-0.1-0.1-0.3-0.2-0.4h0.3c0,0-1.1-4.7,2-15.8
	c2.1-7.8,5.1-14.2,6.7-17.4c0.1,0,0.3,0,0.4,0c0.2,0,0.4,0,0.5,0c1.9-0.3,3.4-1.9,3.4-3.9C82.9,32.3,81.1,30.6,78.9,30.6z"/>
</svg>
