<?xml version="1.0" encoding="utf-8"?>
<!-- Generator: Adobe Illustrator 22.1.0, SVG Export Plug-In . SVG Version: 6.00 Build 0)  -->
<svg version="1.1" id="Ebene_1" xmlns="http://www.w3.org/2000/svg" xmlns:xlink="http://www.w3.org/1999/xlink" x="0px" y="0px"
	 viewBox="0 0 100 100" style="enable-background:new 0 0 100 100;" xml:space="preserve">
<style type="text/css">
	.st0{fill:white;}
	.st1{fill:white;}
</style>
<g>
	<path class="st0" d="M44.8,65.2"/>
</g>
<path class="st1" d="M83.6,36C81.3,38,66,42.3,66,42.3c1.7,1.5,3.1,3.3,2.6,5.5c-0.6,3.1-5.5,5.4-8.7,4.2c-4.2-1.6-6.1-7.2-1.2-9.2
	c0,0-2.8-10.3-7.2-14.4L50,27.2l-1.4,1.2c-4.4,4.1-7.2,14.4-7.2,14.4c4.9,2,3,7.6-1.2,9.2c-3.2,1.2-8.1-1.1-8.7-4.2
	c-0.5-2.2,0.9-4,2.6-5.5c0,0-15.3-4.3-17.6-6.3c0,0-1.2-0.4-0.6,1.4c0.6,1.6,10.1,25.7,11.6,29.6c-0.9,0.2-1.6,1-1.6,1.8
	c0,1.1,1,1.9,2.2,1.9h43.8c1.2,0,2.2-0.9,2.2-1.9c0-0.8-0.6-1.5-1.4-1.8c1.5-3.8,11.1-28,11.6-29.6C84.8,35.7,83.6,36,83.6,36z"/>
</svg>
