<?xml version="1.0" encoding="utf-8"?>
<!-- Generator: Adobe Illustrator 22.1.0, SVG Export Plug-In . SVG Version: 6.00 Build 0)  -->
<svg version="1.1" id="Ebene_1" xmlns="http://www.w3.org/2000/svg" xmlns:xlink="http://www.w3.org/1999/xlink" x="0px" y="0px"
	 viewBox="0 0 100 100" style="enable-background:new 0 0 100 100;" xml:space="preserve">
<style type="text/css">
	.st0{fill:#020203;}
</style>
<g>
	<circle class="st0" cx="80.5" cy="18.3" r="8.9"/>
	<path class="st0" d="M41.8,29.5c0,0,8-11.1,20-11.1c6.2,0,9.8,4,9.8,9.4c0,0.9-0.4,16.5-0.4,16.5l-3.6-10.2l-11.1,6.7L41.8,29.5z"
		/>
	<rect x="35.1" y="2" transform="matrix(0.5326 -0.8464 0.8464 0.5326 -3.5811 44.408)" class="st0" width="6.7" height="46.9"/>
	<path class="st0" d="M86.8,85.1c-6.2,3.1-15.1,1.3-21.4-2.2L9.7,51.3l-4.5,7.6l55.7,31.6c3.6,2.2,8,3.1,12,3.1
		c4,0,7.6-0.9,11.1-2.7l7.1-4L86.8,85.1z"/>
	<path class="st0" d="M83,58.2l-13.4-8.5c-4.3-2.5-7-7.4-7-13.1v-8.5h8.9v8.5c0,2.5,1,4.5,2.7,5.5l13.5,8.6L83,58.2z"/>
	<path class="st0" d="M39.1,76.1l-4.4-7.7l18.7-10.7c0.4-0.3,0.7-0.8,0.7-1.1c0-0.2-0.1-0.4-0.4-0.6c-6.3-4.5-14.6-9.8-14.7-9.8
		l4.8-7.5c0.3,0.2,8.6,5.5,14.9,9.9c2.6,1.6,4.3,4.7,4.3,8c0,3.5-1.9,6.8-5,8.8L39.1,76.1z"/>
	<path class="st0" d="M57.4,48.2L36.9,33.9l-1.8,1.8c-4.5,4.5-3.1,11.6,2.2,14.3l19.2,9.4L57.4,48.2z"/>
</g>
</svg>
