<?xml version="1.0" encoding="utf-8"?>
<!-- Generator: Adobe Illustrator 22.1.0, SVG Export Plug-In . SVG Version: 6.00 Build 0)  -->
<svg version="1.1" id="Ebene_1" xmlns="http://www.w3.org/2000/svg" xmlns:xlink="http://www.w3.org/1999/xlink" x="0px" y="0px"
	 viewBox="0 0 100 100" style="enable-background:new 0 0 100 100;" xml:space="preserve">
<style type="text/css">
	.st0{fill:white;}
</style>
<g>
	<g>
		<circle class="st0" cx="57.6" cy="14.7" r="9.2"/>
		<path class="st0" d="M33.3,84.6c-0.6-4.8-1.5-16.6,5.4-28.3c2.5-4.3,5.5-7.4,8-9.7c0.5-3.1,1.1-8.5,1.7-11.6l-0.2-0.2
			c-1.8-0.6-5.7-1.5-10.4-0.7c-2.7,0.5-4.9,1.4-6.6,2.3c-1.8,0.9-3.9,0.2-4.7-1.7v-0.1c-0.6-1.5-0.2-3.1,1.1-4
			c2.5-1.8,4.8-3,6.5-3.7c6.4-2.5,12.4-1.9,17.3-1.5c0.7,0.1,0,0,10.2,1.7c7.4,1.2,9.4,1.5,12.2,1.1c2.1-0.3,3.9-0.9,5.4-1.5
			c1.8-0.8,4.1,0.1,4.7,2c0.5,1.6-0.2,3.4-1.6,4.2c-2.2,1.1-5,2.4-8.3,3.2c-3.3,0.8-6.3,1.1-8.6,1.1c-0.5,3.8-0.9,7.7-1.5,11.6
			c4.2,2.2,5.9,5.1,6.6,6.4c1,2.1,1.1,4.4,1.4,8.7c0.2,3.1,0.1,5.7,0,7.4c-2.6,0.8-5.1,1.5-7.7,2.3c0.4-2.8,0.5-7.2-1-12.1
			c-0.5-1.7-1.1-3.2-1.8-4.4c-2.8-1.7-4.9-1.6-5.8-1.5c-3.1,0.4-5.6,2.5-7.6,4.4c0,0-0.8,0.7-1.4,1.4c-4.2,4.6-4.1,17.6-4.1,18.8"/>
		<path class="st0" d="M19.6,91.2c-5.8,0-11.6-2.1-16-6.1c-0.9-0.8-1-2.4-0.2-3.3c0.8-0.9,2.4-1,3.3-0.2c5.2,4.7,12.6,6.2,19.2,3.9
			l54.2-18.8c3.1-1.1,5.8-2.9,8-5.3c2.8-3.1,3.9-6.3,4.4-8.5c0.3-1.2,1.5-2.1,2.8-1.8c1.2,0.3,2,1.5,1.8,2.8
			c-0.6,2.8-2.1,6.7-5.5,10.6c-2.7,3-6.1,5.3-10,6.6L27.4,89.9C24.9,90.8,22.2,91.2,19.6,91.2z"/>
	</g>
</g>
</svg>
