<?xml version="1.0" encoding="utf-8"?>
<!-- Generator: Adobe Illustrator 22.1.0, SVG Export Plug-In . SVG Version: 6.00 Build 0)  -->
<svg version="1.1" id="Ebene_1" xmlns="http://www.w3.org/2000/svg" xmlns:xlink="http://www.w3.org/1999/xlink" x="0px" y="0px"
	 viewBox="0 0 100 100" style="enable-background:new 0 0 100 100;" xml:space="preserve">
<g>
	<path class="st0" d="M2.9,62.2C6.4,68,9.8,69,14.7,70.4c4.8,1.4,19.6,4.2,32.7,7.9c13.1,3.8,34.5,10.5,40.8,12
		c3.2,0.8,9.1,1.7,10.1-4.7c1.1-6.4-2.8-7.7-6.3-8.9c-7-2.3-15.6-4.2-15.6-4.2s-0.2-3.5,0.1-3.9c0.3-0.5,0.6-4.4,0.5-5.1
		c-0.2-0.8,2.3-3,3-5.5c0.2,3.4,2.1,3,2.5,3.8c0.4,0.7,0.2,3,0,3.1c-0.2,0.2-0.7,2.6,1.7,2.6c2.3,0,4.2-4.1,3.9-6.8
		c-0.3-2.7-0.8-5.1-2.3-11.7c-1.5-6.6-4-13.4-5.4-18.2c-1.4-4.8-4-7.3-8-10.5c-0.2-1.1,2.7-7-4.2-10.4s-10.9,2.8-10.7,6.7
		c-1.1,0.5-0.8,1.7-0.8,1.7s-1.4,1.3-3.3,3.4c-2,2.1-3.7,7.6-4.7,8.9c-1,1.4-2.4,5.3-2.4,5.3s-8.1-4.8-11.6,2
		c-2.5,4.9-0.6,9.1-1.7,10.7c-1.1,1.6-2,6.6-2.3,7.2s-2.7,3.6-2.7,3.6s-11.4-2.6-18.3-5.1C2.7,51.8-0.6,56.4,2.9,62.2z M49,55.8
		c0,0,3.1,1.4,8.6,2.5c5.5,1.1,8.9,0.4,8.9,0.4s-0.5,3.3-1.4,4.1c-0.8,0.8-0.7,1.4-0.5,3c-1.3-0.2-2.9,2.5-2.9,2.5s-13.1-3-13.5-3.4
		C47.7,64.5,49,55.8,49,55.8z"/>
</g>
</svg>
