<?xml version="1.0" encoding="utf-8"?>
<!-- Generator: Adobe Illustrator 22.1.0, SVG Export Plug-In . SVG Version: 6.00 Build 0)  -->
<svg version="1.1" id="Ebene_1" xmlns="http://www.w3.org/2000/svg" xmlns:xlink="http://www.w3.org/1999/xlink" x="0px" y="0px"
	 viewBox="0 0 100 100" style="enable-background:new 0 0 100 100;" xml:space="preserve">
<style type="text/css">
	.st0{fill:#FFFFFF;}
	.st1{fill:#1D1D1B;}
</style>
<g>
	<g>
		<defs>
			<path id="SVGID_1_" d="M80.6,65.9c1.2-2.4,3.5-7.7,3.9-13.4c0,0-5.3-0.2-6.7-0.3c-6.1-0.8-9-2.4-11.8-3.4
				c-9.3-3.4-12.8-12.8-16-24l-0.4-1.8l-0.4,1.8c-3.2,11.2-6.7,20.6-16,24c-2.8,1-5.7,2.6-11.8,3.4c-1.4,0.2-6.7,0.3-6.7,0.3
				c0.4,5.7,2.8,11,3.9,13.4c0.4,0.8,0.9,1.5,1.4,2.1c1.6-1,4.6-2.3,10.3-3.5c12.1-2.5,38.9-1.1,48.6,3.7
				C79.6,67.6,80.1,66.8,80.6,65.9z"/>
		</defs>
		<clipPath id="SVGID_2_">
			<use xlink:href="#SVGID_1_"  style="overflow:visible;"/>
		</clipPath>
	</g>
</g>
<g>
	<path class="st0" d="M44.8,65.2"/>
</g>
<path class="st1" d="M80.3,39.6l-23.1-0.5l-7.6-21.8L42,39.2l-23.1,0.5l18.4,14l-6.7,22.1l19-13.2l19,13.2l-6.7-22.1L80.3,39.6z"/>
</svg>
